<svg viewBox="0 0 1024 1024" xmlns="http://www.w3.org/2000/svg">
  <defs>
    <linearGradient id="bg" x1="0" y1="0" x2="1" y2="1">
      <stop offset="0%" stop-color="#FBBF24" />
      <stop offset="55%" stop-color="#F97316" />
      <stop offset="100%" stop-color="#DC2626" />
    </linearGradient>
    <linearGradient id="page" x1="0" y1="0" x2="0" y2="1">
      <stop offset="0%" stop-color="#FFFFFF" />
      <stop offset="100%" stop-color="#FEF3C7" />
    </linearGradient>
    <radialGradient id="glow" cx="0.5" cy="0.5" r="0.5">
      <stop offset="0%" stop-color="#FEF3C7" stop-opacity="0.7" />
      <stop offset="100%" stop-color="#FEF3C7" stop-opacity="0" />
    </radialGradient>
  </defs>
  <rect width="1024" height="1024" rx="226" fill="url(#bg)" />
  <ellipse cx="512" cy="580" rx="376" ry="256" fill="url(#glow)" />
  <!-- Right page (back) -->
  <path d="M512 324 L854 256 L854 752 L512 820 Z" fill="url(#page)" opacity="0.75" />
  <line x1="580" y1="410" x2="786" y2="376" stroke="#D97706" stroke-width="13" stroke-linecap="round" opacity="0.5" />
  <line x1="580" y1="478" x2="786" y2="444" stroke="#D97706" stroke-width="13" stroke-linecap="round" opacity="0.5" />
  <line x1="580" y1="546" x2="786" y2="512" stroke="#D97706" stroke-width="13" stroke-linecap="round" opacity="0.5" />
  <line x1="580" y1="614" x2="734" y2="580" stroke="#D97706" stroke-width="13" stroke-linecap="round" opacity="0.5" />
  <!-- Left page (front) -->
  <path d="M512 324 L170 256 L170 752 L512 820 Z" fill="url(#page)" />
  <line x1="240" y1="394" x2="444" y2="358" stroke="#F97316" stroke-width="15" stroke-linecap="round" opacity="0.65" />
  <line x1="240" y1="478" x2="444" y2="444" stroke="#F97316" stroke-width="15" stroke-linecap="round" opacity="0.65" />
  <line x1="240" y1="562" x2="444" y2="528" stroke="#F97316" stroke-width="15" stroke-linecap="round" opacity="0.65" />
  <line x1="240" y1="646" x2="376" y2="614" stroke="#F97316" stroke-width="15" stroke-linecap="round" opacity="0.65" />
  <line x1="512" y1="324" x2="512" y2="820" stroke="#92400E" stroke-width="13" opacity="0.35" />
  <!-- "1%" badge in the gutter -->
  <g transform="translate(512 146)">
    <rect x="-102" y="-86" width="204" height="172" rx="42" fill="#FFFFFF" />
    <text x="0" y="44" font-family="DejaVu Sans, sans-serif" font-size="118" font-weight="900" fill="#DC2626" text-anchor="middle" letter-spacing="-4">1%</text>
  </g>
</svg>